<?xml version="1.0" standalone="no"?>
<!DOCTYPE svg PUBLIC "-//W3C//DTD SVG 20010904//EN"
 "http://www.w3.org/TR/2001/REC-SVG-20010904/DTD/svg10.dtd">
<svg version="1.0" xmlns="http://www.w3.org/2000/svg"
 width="260.000000pt" height="260.000000pt" viewBox="0 0 260.000000 260.000000"
 preserveAspectRatio="xMidYMid meet">
<metadata>
Created by potrace 1.14, written by Peter Selinger 2001-2017
</metadata>
<g transform="translate(0.000000,260.000000) scale(0.100000,-0.100000)"
fill="#000000" stroke="none">
<path d="M1570 1716 c-93 -26 -144 -68 -179 -146 -32 -72 -35 -118 -15 -191
23 -84 85 -147 168 -173 67 -21 68 -12 -11 -170 -30 -59 -52 -111 -49 -114 10
-9 113 -15 152 -8 36 7 37 9 140 222 115 236 133 296 114 373 -14 56 -48 117
-87 153 -52 50 -159 75 -233 54z m117 -188 c31 -35 42 -61 36 -91 -6 -32 -56
-77 -84 -77 -36 0 -80 31 -95 66 -13 30 -13 38 1 64 32 61 103 80 142 38z"/>
<path d="M2187 1719 c-93 -22 -151 -73 -183 -160 -19 -54 -12 -137 16 -191
l20 -38 -25 -35 c-13 -20 -31 -61 -40 -92 -15 -53 -15 -59 4 -122 35 -115 133
-184 262 -185 88 0 147 24 202 83 74 79 85 190 30 292 l-24 46 20 34 c11 19
25 55 31 81 22 87 -37 216 -117 256 -34 17 -132 44 -151 41 -4 -1 -24 -5 -45
-10z m103 -189 c63 -63 3 -157 -73 -113 -53 32 -55 96 -2 122 31 15 53 13 75
-9z m-12 -306 c31 -21 51 -65 42 -89 -4 -11 -19 -31 -33 -44 -21 -19 -32 -22
-60 -17 -83 16 -99 112 -25 153 31 17 49 16 76 -3z"/>
<path d="M214 1713 l-132 -4 2 -392 1 -392 98 -3 97 -3 2 63 c1 35 1 169 0
298 -2 136 2 241 7 250 6 9 24 14 52 13 56 -3 89 -33 89 -84 0 -51 -26 -79
-78 -86 l-42 -6 0 -83 c0 -80 1 -84 23 -85 168 -11 310 121 294 275 -13 132
-107 226 -237 238 -25 2 -104 3 -176 1z"/>
<path d="M932 1704 c-151 -40 -256 -151 -288 -305 -44 -212 89 -427 298 -484
35 -9 87 -15 117 -13 l55 3 0 80 1 80 -64 7 c-87 10 -146 47 -188 118 -28 47
-33 63 -33 120 1 144 90 230 239 230 l51 0 0 84 c0 78 -1 84 -22 90 -38 10
-110 6 -166 -10z"/>
<path d="M1072 1328 l3 -63 123 -3 122 -3 0 66 0 65 -125 0 -126 0 3 -62z"/>
</g>
</svg>
